<?xml version="1.0" encoding="UTF-8" standalone="no"?>
<!-- Created with Inkscape (http://www.inkscape.org/) -->

<svg
   width="85mm"
   height="51mm"
   viewBox="0 0 84.999997 50.999998"
   version="1.1"
   id="svg1"
   inkscape:version="1.3.2 (1:1.3.2+202311252150+091e20ef0f)"
   sodipodi:docname="arrow2.svg"
   xmlns:inkscape="http://www.inkscape.org/namespaces/inkscape"
   xmlns:sodipodi="http://sodipodi.sourceforge.net/DTD/sodipodi-0.dtd"
   xmlns="http://www.w3.org/2000/svg"
   xmlns:svg="http://www.w3.org/2000/svg">
  <sodipodi:namedview
     id="namedview1"
     pagecolor="#ffffff"
     bordercolor="#999999"
     borderopacity="1"
     inkscape:showpageshadow="2"
     inkscape:pageopacity="0"
     inkscape:pagecheckerboard="0"
     inkscape:deskcolor="#d1d1d1"
     inkscape:document-units="mm"
     inkscape:zoom="1.4841611"
     inkscape:cx="216.62069"
     inkscape:cy="57.608303"
     inkscape:window-width="1920"
     inkscape:window-height="1015"
     inkscape:window-x="0"
     inkscape:window-y="0"
     inkscape:window-maximized="1"
     inkscape:current-layer="layer1" />
  <defs
     id="defs1">
    <inkscape:path-effect
       effect="powerstroke"
       id="path-effect6"
       is_visible="true"
       lpeversion="1.3"
       scale_width="1"
       interpolator_type="CentripetalCatmullRom"
       interpolator_beta="0.75"
       start_linecap_type="round"
       end_linecap_type="round"
       offset_points="60,0.31656431 | 95.057397,0.26219802"
       linejoin_type="spiro"
       miter_limit="4"
       not_jump="true"
       sort_points="true"
       message="stroke-width:2;stroke-opacity:0.2;fill:#d1cbc9;stroke:#2e3436" />
    <inkscape:path-effect
       effect="simplify"
       id="path-effect5"
       is_visible="true"
       lpeversion="1.3"
       threshold="0.012"
       steps="1"
       smooth_angles="0"
       helper_size="0"
       simplify_individual_paths="false"
       simplify_just_coalesce="false"
       step="1" />
    <inkscape:path-effect
       effect="powerstroke"
       id="path-effect4"
       is_visible="true"
       lpeversion="1.3"
       scale_width="1"
       interpolator_type="CentripetalCatmullRom"
       interpolator_beta="0.75"
       start_linecap_type="round"
       end_linecap_type="round"
       offset_points="56.910917,0.15500803"
       linejoin_type="spiro"
       miter_limit="4"
       not_jump="true"
       sort_points="true"
       message="&lt;b&gt;Ctrl + clic&lt;/b&gt; sobre un nodo existente y muévalo" />
    <inkscape:path-effect
       effect="simplify"
       id="path-effect3"
       is_visible="true"
       lpeversion="1.3"
       threshold="0.012"
       steps="1"
       smooth_angles="0"
       helper_size="0"
       simplify_individual_paths="false"
       simplify_just_coalesce="false"
       step="1" />
    <inkscape:path-effect
       effect="powerstroke"
       id="path-effect2"
       is_visible="true"
       lpeversion="1.3"
       scale_width="1"
       interpolator_type="CentripetalCatmullRom"
       interpolator_beta="0.75"
       start_linecap_type="round"
       end_linecap_type="round"
       offset_points="105.07296,0.12402373 | 509.7421,0.147619 | 765.0975,0.16696723"
       linejoin_type="spiro"
       miter_limit="4"
       not_jump="true"
       sort_points="true"
       message="&lt;b&gt;Ctrl + clic&lt;/b&gt; sobre un nodo existente y muévalo" />
    <inkscape:path-effect
       effect="simplify"
       id="path-effect1"
       is_visible="true"
       lpeversion="1.3"
       threshold="0.012"
       steps="1"
       smooth_angles="0"
       helper_size="0"
       simplify_individual_paths="false"
       simplify_just_coalesce="false"
       step="1" />
  </defs>
  <g
     inkscape:label="Capa 1"
     inkscape:groupmode="layer"
     id="layer1">
    <g
       id="g6">
      <path
         style="fill:none;stroke:#000000;stroke-width:0.529167;stroke-linecap:butt;stroke-linejoin:miter;stroke-dasharray:none;stroke-opacity:1"
         d="m 1.7357631,47.237109 c 7.573007,3.251362 18.6076799,2.765673 26.1597049,-1.627255 5.641334,-3.281501 10.577955,-9.86052 10.717096,-16.385361 0.09699,-4.548367 -2.774771,-9.987029 -6.977012,-11.73008 -4.362607,-1.809568 -10.545039,-0.0062 -13.736147,3.475659 -2.824701,3.082115 -3.712888,8.563568 -2.007172,12.38049 1.715792,3.839468 6.469087,6.15781 10.624651,6.803377 6.758874,1.049995 13.948208,-1.798603 19.823201,-5.30136 C 51.495372,31.778922 56.327871,27.273902 58.7037,21.762115 60.39523,17.83786 61.73744,12.563381 59.435432,8.96313 57.353943,5.7077621 52.423034,3.8607531 48.653028,4.7075571 44.668543,5.6025381 40.91517,9.613365 40.275325,13.646689 c -0.655374,4.131219 1.683271,9.306355 5.326011,11.362308 5.938234,3.351523 14.205021,0.827861 20.344001,-2.140009 5.375667,-2.598849 9.606656,-7.59324 12.53341,-12.797654 1.432374,-2.5470799 2.165492,-8.494965 2.165492,-8.494965"
         id="path1"
         sodipodi:nodetypes="caaaaaaaaaaaaaac" />
      <path
         d="m 23.022253,-17.304338 c 0.05273,-0.0082 0.105264,-0.01657 0.164429,-0.02604 0.178529,-0.02865 0.363452,-0.05912 0.559556,-0.09212 0.33618,-0.05663 0.685726,-0.117512 1.048367,-0.183035 0.414028,-0.07484 0.843924,-0.155537 1.284579,-0.242516 0.369116,-0.07287 0.750915,-0.151163 1.139889,-0.235416 0.311718,-0.06753 0.632941,-0.13994 0.958902,-0.217922 0.253622,-0.06069 0.514162,-0.125705 0.777765,-0.195858 0.204313,-0.05439 0.413727,-0.112707 0.625067,-0.175875 0.184692,-0.05524 0.374095,-0.115078 0.564425,-0.181137 0.169013,-0.05898 0.339139,-0.120135 0.511253,-0.183721 0.73265,-0.271023 1.464835,-0.574012 2.19274,-0.910568 0.702091,-0.324636 1.400455,-0.680627 2.090779,-1.069505 0.599657,-0.337806 1.194203,-0.70098 1.780004,-1.090616 0.0071,-0.0047 0.01339,-0.0088 0.01974,-0.01296 0.02143,-0.01437 0.04197,-0.02842 0.0625,-0.04273 0.02767,-0.01932 0.05518,-0.03901 0.0826,-0.05907 0.130873,-0.09616 0.256124,-0.197829 0.377684,-0.302118 0.140102,-0.120324 0.27589,-0.24478 0.409235,-0.371764 0.140915,-0.134264 0.279022,-0.271374 0.415807,-0.410585 0.177284,-0.180507 0.351548,-0.363766 0.52515,-0.548981 0.220645,-0.235447 0.437145,-0.47097 0.656668,-0.708115 0.137628,-0.148602 0.275977,-0.297379 0.415529,-0.444421 0.11371,-0.11974 0.228138,-0.238325 0.3444,-0.354308 0.100344,-0.09998 0.200854,-0.197043 0.303786,-0.28939 0.06735,-0.06028 0.133815,-0.116896 0.201393,-0.16875 0.0228,-0.01743 0.04544,-0.03403 0.06793,-0.04964 0.01034,-0.0071 0.02058,-0.01402 0.03072,-0.02061 0.0028,-0.0017 0.007,-0.0044 0.01113,-0.007 0.0013,-7.39e-4 0.0054,-0.0033 0.0095,-0.0059 0.0011,-5.94e-4 0.0051,-0.0031 0.0092,-0.0055 8.61e-4,-4.49e-4 0.0049,-0.0028 0.0089,-0.0052 6.31e-4,-3.02e-4 0.0046,-0.0026 0.0086,-0.0049 3.88e-4,-1.55e-4 0.0043,-0.0023 0.0082,-0.0045 1.31e-4,-8e-6 0.004,-0.0021 0.0078,-0.0042 -1.43e-4,1.4e-4 0.0037,-0.0019 0.0075,-0.0039 -4.34e-4,2.85e-4 0.0033,-0.0016 0.0071,-0.0035 -7.43e-4,4.28e-4 0.003,-0.0014 0.0066,-0.0032 -0.0011,5.69e-4 0.0026,-0.0012 0.0062,-0.0029 -0.0014,7.05e-4 0.0022,-9.27e-4 0.0058,-0.0026 -0.0018,8.35e-4 0.0017,-7.02e-4 0.0053,-0.0022 -0.0022,9.57e-4 0.0013,-4.84e-4 0.0048,-0.0019 -0.0026,0.0011 8.16e-4,-2.74e-4 0.0042,-0.0016 -0.0031,0.0012 3.11e-4,-7.8e-5 0.0037,-0.0013 -0.0035,0.0013 -2.21e-4,1.05e-4 0.0031,-0.001 -0.004,0.0013 -7.83e-4,2.7e-4 0.0025,-7.83e-4 -0.0046,0.0014 -0.0014,4.11e-4 0.0018,-5.44e-4 -0.0051,0.0014 -0.002,5.27e-4 0.0011,-3.31e-4 -0.0057,0.0014 -0.0026,6.11e-4 4.27e-4,-1.5e-4 -0.0064,0.0013 -0.0033,6.58e-4 -3.09e-4,-5e-6 l -0.01002,0.0018 c 0.003,-5.61e-4 0.006,-0.0011 0.0089,-0.0017 l -0.01064,0.0015 c 0.0029,-4.63e-4 0.0059,-9.27e-4 0.0088,-0.0014 l -0.01128,0.0012 c 0.0029,-3.63e-4 0.0058,-7.29e-4 0.0086,-0.0011 l -0.01192,8.72e-4 c 0.0028,-2.64e-4 0.0057,-5.32e-4 0.0085,-8.04e-4 l -0.01257,4.37e-4 c 0.0028,-1.65e-4 0.0056,-3.34e-4 0.0083,-5.1e-4 l -0.01321,-7.3e-5 c 0.0027,-6.5e-5 0.0055,-1.37e-4 0.0081,-2.16e-4 l -0.01382,-6.61e-4 c 0.0027,3.4e-5 0.0054,6e-5 0.008,7.7e-5 l -0.01439,-0.0013 c 0.0026,1.34e-4 0.0053,2.57e-4 0.0078,3.69e-4 l -0.0149,-0.0021 c 0.0026,2.33e-4 0.0052,4.52e-4 0.0077,6.59e-4 l -0.01532,-0.0029 c 0.0026,3.32e-4 0.0051,6.48e-4 0.0076,9.47e-4 l -0.01564,-0.0038 c 0.0025,4.3e-4 0.005,8.41e-4 0.0074,0.0012 l -0.01584,-0.0047 c 0.0024,5.22e-4 0.0049,0.001 0.0073,0.0015 l -0.0159,-0.0056 c 0.0024,6.13e-4 0.0048,0.0012 0.0072,0.0018 l -0.0158,-0.0066 c 0.0024,7.09e-4 0.0048,0.0014 0.0071,0.0021 l -0.01555,-0.0075 c 0.0023,8.09e-4 0.0047,0.0016 0.007,0.0024 l -0.01515,-0.0084 c 0.0023,9.13e-4 0.0046,0.0018 0.007,0.0027 l -0.0146,-0.0092 c 0.0023,0.001 0.0046,0.002 0.0069,0.003 l -0.01393,-0.0098 c 0.0023,0.0011 0.0045,0.0023 0.0068,0.0034 l -0.01314,-0.0104 c 0.0022,0.0013 0.0045,0.0025 0.0067,0.0037 l -0.01227,-0.01084 c 0.0022,0.0014 0.0044,0.0027 0.0066,0.0041 l -0.01135,-0.01114 c 0.0022,0.0015 0.0044,0.003 0.0066,0.0045 l -0.0104,-0.01131 c 0.0022,0.0016 0.0043,0.0033 0.0065,0.0049 l -0.0094,-0.01135 c 0.0021,0.0018 0.0043,0.0035 0.0064,0.0053 l -0.0085,-0.01129 c 0.0021,0.0019 0.0042,0.0038 0.0063,0.0057 l -0.0076,-0.01112 c 0.0021,0.002 0.0041,0.0041 0.0062,0.0061 l -0.0068,-0.01087 c 0.002,0.0022 0.004,0.0044 0.006,0.0065 l -0.006,-0.01056 c 0.002,0.0023 0.0039,0.0047 0.0059,0.007 l -0.0052,-0.01019 c 0.0019,0.0025 0.0039,0.005 0.0058,0.0074 l -0.0046,-0.0098 c 0.0019,0.0026 0.0038,0.0053 0.0056,0.0079 l -0.004,-0.0094 c 0.0018,0.0028 0.0036,0.0056 0.0055,0.0083 -0.0017,-0.006 1.13e-4,-0.0031 0.0019,-1.29e-4 -0.0012,-0.0054 4.68e-4,-0.0023 0.0022,7.74e-4 -2.23e-4,-0.0027 0.0014,4.77e-4 0.0031,0.0037 0.0021,0.0049 0.0047,0.01193 0.0073,0.01932 0.0096,0.03487 0.01714,0.07308 0.02362,0.115473 0.01,0.06828 0.0159,0.13965 0.01973,0.214726 0.0051,0.107114 0.0055,0.21617 0.0034,0.327506 -0.0026,0.129615 -0.0086,0.26005 -0.01663,0.391407 -0.0096,0.155599 -0.02192,0.311526 -0.03576,0.467855 -0.01768,0.197598 -0.03777,0.395327 -0.05904,0.593276 -0.02805,0.25926 -0.05809,0.518614 -0.08852,0.778223 -0.05364,0.454483 -0.10862,0.910358 -0.158112,1.367167 -0.02773,0.257958 -0.05379,0.51654 -0.07648,0.775771 -0.01826,0.209836 -0.03438,0.420443 -0.04682,0.63172 -0.009,0.15454 -0.01604,0.30978 -0.0201,0.465567 -0.0092,0.340723 -0.0135,0.681087 -0.01501,1.020794 -10e-7,1.48e-4 -2.47e-4,0.06433 -2.48e-4,0.06445 -0.0012,0.349279 6.68e-4,0.700862 0.0045,1.056962 0.0052,0.480014 0.01411,0.96264 0.02548,1.451045 0.01413,0.607729 0.03195,1.217756 0.05198,1.834287 0.02774,0.855341 0.05939,1.708532 0.0917,2.573734 0.01824,0.487314 0.0368,0.981002 0.05422,1.472812 0.01233,0.348003 0.0242,0.6979364 0.03463,1.0481514 0.0084,0.2842455 0.01601,0.5691967 0.02134,0.8541756 0.0042,0.2288911 0.0072,0.4571301 0.0063,0.6848454 -5.59e-4,0.1269473 -0.0022,0.2521497 -0.007,0.3763451 -0.0026,0.065855 -0.0059,0.1290438 -0.01137,0.1907297 -0.0017,0.018946 -0.0036,0.037186 -0.0058,0.054758 -4.53e-4,0.00341 -0.0011,0.00816 -0.0017,0.012895 -2.78e-4,0.0017 -9.43e-4,0.00623 -0.0016,0.010734 -2.36e-4,0.00117 -9.36e-4,0.00548 -0.0016,0.00975 -1.73e-4,6e-4 -9.07e-4,0.00468 -0.0016,0.00872 -8.4e-5,-3.57e-5 -8.5e-4,0.00381 -0.0016,0.00762 4.1e-5,-7.461e-4 -7.58e-4,0.00287 -0.0015,0.00645 2.12e-4,-0.00155 -6.17e-4,0.00184 -0.0014,0.00518 4.49e-4,-0.00246 -4.1e-4,6.869e-4 -0.0013,0.00379 7.75e-4,-0.00352 -1.12e-4,-6.059e-4 -9.85e-4,0.00226 0.0012,-0.00476 3.11e-4,-0.00208 -5.85e-4,5.413e-4 0.0019,-0.00621 9.18e-4,-0.00377 3e-6,-0.0014 l 0.0037,-0.010215 c -9.91e-4,0.00226 -0.002,0.00446 -0.0029,0.00659 l 0.0051,-0.012066 c -0.001,0.00203 -0.002,0.00399 -0.0029,0.00587 l 0.007,-0.014334 c -0.001,0.0018 -0.002,0.00351 -0.003,0.00515 l 0.0098,-0.017058 c -0.0011,0.00157 -0.0021,0.00305 -0.003,0.00444 a 0.26176389,0.26176389 90 0 0 0.427845,0.3017128 c 8.66e-4,-0.00114 0.0018,-0.00243 0.0028,-0.00387 0.0024,-0.00333 0.0048,-0.00659 0.0073,-0.00989 0.0024,-0.0033 0.0046,-0.00675 0.0067,-0.010281 8.38e-4,-0.00144 0.0017,-0.00299 0.0027,-0.00465 0.0016,-0.00285 0.0033,-0.00564 0.0051,-0.00842 0.0017,-0.00278 0.0033,-0.00567 0.0047,-0.00863 8.09e-4,-0.0017 0.0017,-0.0035 0.0025,-0.00538 0.0011,-0.00241 0.0024,-0.00476 0.0036,-0.00711 0.0013,-0.00234 0.0024,-0.00476 0.0034,-0.00723 7.82e-4,-0.00195 0.0016,-0.00399 0.0024,-0.0061 8.06e-4,-0.00203 0.0017,-0.00402 0.0026,-0.006 9.17e-4,-0.00198 0.0017,-0.00401 0.0024,-0.00607 7.58e-4,-0.0022 0.0015,-0.00447 0.0023,-0.0068 5.91e-4,-0.00172 0.0013,-0.0034 0.0019,-0.00509 6.82e-4,-0.00168 0.0013,-0.00339 0.0018,-0.00513 7.36e-4,-0.00244 0.0015,-0.00494 0.0023,-0.0075 0.0035,-0.011385 0.0043,-0.014118 0.005,-0.016904 0.0029,-0.010395 0.0036,-0.013358 0.0043,-0.016369 0.0024,-0.00963 0.003,-0.012818 0.0037,-0.016053 0.002,-0.00903 0.0027,-0.012452 0.0033,-0.015909 0.0017,-0.00858 0.0024,-0.012223 0.003,-0.015902 0.0015,-0.00823 0.0021,-0.012103 0.0028,-0.016004 0.0013,-0.00798 0.0019,-0.012072 0.0026,-0.016191 0.0012,-0.00779 0.0018,-0.01211 0.0024,-0.016448 0.0011,-0.00767 0.0017,-0.012206 0.0023,-0.016761 9.7e-4,-0.00759 0.0016,-0.012349 0.0022,-0.017119 0.0032,-0.026045 0.0057,-0.050227 0.0078,-0.073618 0.0066,-0.073949 0.0103,-0.1465776 0.01309,-0.2164572 0.0051,-0.1328879 0.0069,-0.2646562 0.0075,-0.3943327 9.54e-4,-0.2334208 -0.002,-0.4659643 -0.0061,-0.6965706 -0.0053,-0.2876881 -0.01275,-0.5747067 -0.02107,-0.8599773 -0.01031,-0.3516147 -0.02205,-0.7026376 -0.03419,-1.0511116 -0.0067,-0.19078 -0.0469,-1.283119 -0.05357,-1.473879 -0.03207,-0.865267 -0.06339,-1.717338 -0.09078,-2.571194 -0.01968,-0.615434 -0.03711,-1.223806 -0.05082,-1.829464 -0.01095,-0.486755 -0.01942,-0.967166 -0.02415,-1.444497 -0.0034,-0.35412 -0.0048,-0.703169 -0.0032,-1.049457 0,1.12e-4 3.35e-4,-0.06396 3.34e-4,-0.06385 0.002,-0.336826 0.0069,-0.673071 0.01653,-1.008775 0.0045,-0.148961 0.01191,-0.298379 0.02134,-0.448372 0.01278,-0.205081 0.02923,-0.410518 0.04796,-0.616595 0.02307,-0.254568 0.04958,-0.509367 0.07793,-0.764908 0.05,-0.453378 0.105441,-0.905487 0.160247,-1.361728 0.03139,-0.259746 0.06265,-0.520952 0.09198,-0.782612 0.02249,-0.19978 0.04399,-0.400772 0.06312,-0.602531 0.01522,-0.159534 0.02906,-0.320372 0.04019,-0.482091 0.0094,-0.136302 0.01705,-0.274367 0.02106,-0.413544 0.0034,-0.118917 0.0044,-0.240808 -1.51e-4,-0.364228 -0.0031,-0.08584 -0.0089,-0.175531 -0.02072,-0.266886 -0.0072,-0.05648 -0.01702,-0.116724 -0.03213,-0.178496 -0.003,-0.01411 -0.0062,-0.02835 -0.0098,-0.04284 -9.68e-4,-0.0054 -0.0014,-0.009 -0.0018,-0.01259 -0.0023,-0.0094 -0.0028,-0.01293 -0.0033,-0.01644 -0.0035,-0.01187 -0.004,-0.01525 -0.0045,-0.01864 -0.004,-0.01219 -0.0046,-0.01546 -0.0052,-0.01874 -1.57e-4,-8.41e-4 -3.47e-4,-0.0017 -6.8e-4,-0.0025 -3.34e-4,-7.87e-4 -7.9e-4,-0.0015 -0.0013,-0.0022 -4.65e-4,-7.18e-4 -9.29e-4,-0.0014 -0.0013,-0.0022 -3.49e-4,-7.81e-4 -5.64e-4,-0.0016 -7.45e-4,-0.0024 -6.84e-4,-0.0031 -0.0014,-0.0063 -0.0021,-0.0095 -1.94e-4,-8.87e-4 -4.24e-4,-0.0018 -8.08e-4,-0.0026 -3.84e-4,-8.23e-4 -8.98e-4,-0.0016 -0.0014,-0.0023 -5.24e-4,-7.42e-4 -0.001,-0.0015 -0.0014,-0.0023 -4.01e-4,-8.14e-4 -6.58e-4,-0.0017 -8.8e-4,-0.0026 -7.64e-4,-0.003 -0.0015,-0.0061 -0.0023,-0.0091 -2.37e-4,-9.34e-4 -5.14e-4,-0.0019 -9.53e-4,-0.0027 -4.4e-4,-8.57e-4 -0.001,-0.0016 -0.0016,-0.0024 -5.88e-4,-7.63e-4 -0.0012,-0.0015 -0.0016,-0.0024 -4.59e-4,-8.47e-4 -7.66e-4,-0.0018 -0.001,-0.0027 -8.48e-4,-0.0029 -0.0017,-0.0059 -0.0026,-0.0088 -2.88e-4,-9.78e-4 -6.16e-4,-0.002 -0.0011,-0.0028 -5.01e-4,-8.89e-4 -0.0011,-0.0017 -0.0018,-0.0025 -6.55e-4,-7.82e-4 -0.0013,-0.0016 -0.0018,-0.0024 -5.22e-4,-8.76e-4 -8.84e-4,-0.0018 -0.0012,-0.0028 -9.35e-4,-0.0028 -0.0019,-0.0056 -0.0028,-0.0085 -3.44e-4,-0.001 -7.32e-4,-0.002 -0.0013,-0.003 -5.67e-4,-9.15e-4 -0.0013,-0.0017 -0.002,-0.0025 -7.27e-4,-7.94e-4 -0.0015,-0.0016 -0.002,-0.0025 -5.91e-4,-9.01e-4 -0.001,-0.0019 -0.0014,-0.0029 -0.001,-0.0027 -0.0021,-0.0054 -0.0031,-0.0081 -4.07e-4,-0.0011 -8.61e-4,-0.0021 -0.0015,-0.003 -6.38e-4,-9.38e-4 -0.0014,-0.0018 -0.0022,-0.0026 -8.02e-4,-8.02e-4 -0.0016,-0.0016 -0.0023,-0.0025 -6.64e-4,-9.19e-4 -0.0012,-0.0019 -0.0016,-0.003 -0.0011,-0.0026 -0.0022,-0.0052 -0.0034,-0.0078 -4.78e-4,-0.0011 -0.001,-0.0022 -0.0017,-0.0031 -7.13e-4,-9.52e-4 -0.0016,-0.0018 -0.0025,-0.0026 -8.79e-4,-8.01e-4 -0.0018,-0.0016 -0.0025,-0.0025 -7.4e-4,-9.31e-4 -0.0013,-0.002 -0.0018,-0.0031 -0.0012,-0.0025 -0.0024,-0.0049 -0.0037,-0.0074 -5.53e-4,-0.0011 -0.0012,-0.0022 -0.0019,-0.0032 -7.9e-4,-9.58e-4 -0.0017,-0.0018 -0.0027,-0.0026 -9.55e-4,-7.94e-4 -0.0019,-0.0016 -0.0027,-0.0025 -8.19e-4,-9.34e-4 -0.0015,-0.002 -0.0021,-0.0031 -0.0013,-0.0024 -0.0026,-0.0047 -0.004,-0.0071 -6.35e-4,-0.0011 -0.0013,-0.0022 -0.0022,-0.0032 -8.7e-4,-9.56e-4 -0.0019,-0.0018 -0.0029,-0.0025 -0.001,-7.79e-4 -0.0021,-0.0016 -0.003,-0.0025 -9e-4,-9.27e-4 -0.0016,-0.002 -0.0023,-0.0031 -0.0014,-0.0022 -0.0028,-0.0045 -0.0042,-0.0067 -7.2e-4,-0.0011 -0.0015,-0.0022 -0.0024,-0.0032 -9.49e-4,-9.42e-4 -0.002,-0.0017 -0.0031,-0.0025 -0.0011,-7.55e-4 -0.0022,-0.0015 -0.0032,-0.0024 -9.8e-4,-9.09e-4 -0.0018,-0.002 -0.0026,-0.0031 -0.0015,-0.0021 -0.003,-0.0042 -0.0045,-0.0063 -8.07e-4,-0.0011 -0.0017,-0.0022 -0.0027,-0.0031 -0.001,-9.18e-4 -0.0022,-0.0017 -0.0034,-0.0024 -0.0012,-7.22e-4 -0.0023,-0.0014 -0.0034,-0.0023 -0.0011,-8.81e-4 -0.002,-0.0019 -0.0028,-0.003 -0.0016,-0.002 -0.0032,-0.004 -0.0048,-0.006 -8.93e-4,-0.0011 -0.0018,-0.0021 -0.0029,-0.003 -0.0011,-8.82e-4 -0.0023,-0.0016 -0.0036,-0.0023 -0.0012,-6.82e-4 -0.0025,-0.0014 -0.0036,-0.0022 -0.0011,-8.42e-4 -0.0021,-0.0019 -0.0031,-0.0029 -0.0017,-0.0019 -0.0034,-0.0037 -0.0051,-0.0056 -9.75e-4,-0.001 -0.002,-0.0021 -0.0032,-0.0029 -0.0012,-8.35e-4 -0.0024,-0.0015 -0.0037,-0.0021 -0.0013,-6.33e-4 -0.0026,-0.0013 -0.0038,-0.0021 -0.0012,-7.92e-4 -0.0023,-0.0018 -0.0033,-0.0027 -0.0018,-0.0017 -0.0036,-0.0035 -0.0054,-0.0052 -0.0011,-9.91e-4 -0.0021,-0.002 -0.0034,-0.0027 -0.0012,-7.79e-4 -0.0025,-0.0014 -0.0039,-0.002 -0.0013,-5.79e-4 -0.0027,-0.0012 -0.0039,-0.0019 -0.0012,-7.33e-4 -0.0024,-0.0016 -0.0035,-0.0026 -0.0019,-0.0016 -0.0038,-0.0032 -0.0057,-0.0048 -0.0011,-9.23e-4 -0.0023,-0.0018 -0.0035,-0.0025 -0.0013,-7.14e-4 -0.0026,-0.0013 -0.004,-0.0018 -0.0014,-5.21e-4 -0.0027,-0.001 -0.004,-0.0017 -0.0013,-6.66e-4 -0.0025,-0.0015 -0.0037,-0.0024 -0.002,-0.0015 -0.004,-0.0029 -0.006,-0.0044 -0.0012,-8.42e-4 -0.0024,-0.0017 -0.0037,-0.0023 -0.0013,-6.43e-4 -0.0027,-0.0011 -0.004,-0.0016 -0.0014,-4.58e-4 -0.0027,-9.12e-4 -0.0041,-0.0015 -0.0013,-5.92e-4 -0.0026,-0.0013 -0.0038,-0.0021 -0.0021,-0.0013 -0.0042,-0.0026 -0.0063,-0.0039 -0.0012,-7.53e-4 -0.0025,-0.0015 -0.0038,-0.002 -0.0013,-5.66e-4 -0.0027,-9.85e-4 -0.0041,-0.0014 -0.0028,-7.89e-4 -0.0054,-0.0018 -0.008,-0.0032 -0.0022,-0.0012 -0.0044,-0.0024 -0.0066,-0.0035 -0.0025,-0.0013 -0.0052,-0.0023 -0.0079,-0.0029 -0.0027,-6.63e-4 -0.0054,-0.0015 -0.008,-0.0027 -0.0023,-0.001 -0.0045,-0.0021 -0.0068,-0.0031 -0.0025,-0.0011 -0.0052,-0.0019 -0.0079,-0.0025 -0.0027,-5.41e-4 -0.0054,-0.0012 -0.008,-0.0022 -0.0023,-8.83e-4 -0.0047,-0.0018 -0.0071,-0.0027 -0.0025,-9.32e-4 -0.0051,-0.0016 -0.0078,-0.002 -0.0027,-4.17e-4 -0.0053,-9.58e-4 -0.0079,-0.0018 -0.0024,-7.46e-4 -0.0048,-0.0015 -0.0073,-0.0022 -0.0025,-7.52e-4 -0.005,-0.0013 -0.0076,-0.0016 -0.0026,-3e-4 -0.0052,-7.01e-4 -0.0077,-0.0013 -0.0025,-6.11e-4 -0.005,-0.0012 -0.0075,-0.0018 -0.0024,-5.83e-4 -0.0049,-9.6e-4 -0.0074,-0.0011 -0.0025,-1.89e-4 -0.005,-4.61e-4 -0.0075,-9.25e-4 -0.0025,-4.79e-4 -0.0051,-9.54e-4 -0.0077,-0.0014 -0.0024,-4.3e-4 -0.0048,-6.82e-4 -0.0072,-7.69e-4 -0.0024,-8.8e-5 -0.0048,-2.42e-4 -0.0072,-5.61e-4 -0.0026,-3.48e-4 -0.0053,-6.92e-4 -0.0079,-0.001 -0.0023,-2.91e-4 -0.0046,-4.3e-4 -0.0069,-4.27e-4 -0.0023,3e-6 -0.0046,-4.7e-5 -0.0069,-2.35e-4 -0.0027,-2.2e-4 -0.0054,-4.33e-4 -0.0081,-6.42e-4 -0.0022,-1.67e-4 -0.0044,-2.06e-4 -0.0066,-1.24e-4 -0.0022,8.3e-5 -0.0044,1.25e-4 -0.0066,5.1e-5 -0.0027,-9.2e-5 -0.0055,-1.79e-4 -0.0083,-2.59e-4 -0.0021,-5.9e-5 -0.0042,-1.2e-5 -0.0063,1.4e-4 -0.0021,1.52e-4 -0.0042,2.73e-4 -0.0063,2.97e-4 -0.0028,3.3e-5 -0.0056,7.2e-5 -0.0085,1.19e-4 -0.002,3.2e-5 -0.004,1.54e-4 -0.006,3.65e-4 -0.002,2.11e-4 -0.004,3.99e-4 -0.006,5.07e-4 -0.0029,1.56e-4 -0.0058,3.2e-4 -0.0087,4.9e-4 -0.0019,1.11e-4 -0.0038,2.95e-4 -0.0056,5.55e-4 -0.0019,2.6e-4 -0.0037,5.04e-4 -0.0056,6.83e-4 -0.0029,2.78e-4 -0.0059,5.64e-4 -0.0088,8.57e-4 -0.0036,3.52e-4 -0.0071,0.0011 -0.01064,0.0015 -0.003,3.99e-4 -0.006,8.05e-4 -0.009,0.0012 -0.0034,4.6e-4 -0.0067,0.0012 -0.01002,0.0018 -0.003,5.17e-4 -0.0061,0.001 -0.0092,0.0016 -0.01253,0.0026 -0.01564,0.0033 -0.01878,0.0039 -0.01201,0.0029 -0.01518,0.0036 -0.01837,0.0044 -0.01152,0.0031 -0.01475,0.004 -0.01799,0.0049 -0.01106,0.0033 -0.01435,0.0043 -0.01764,0.0053 -0.01064,0.0035 -0.01397,0.0046 -0.01731,0.0057 -0.01024,0.0036 -0.01362,0.0048 -0.01702,0.006 -0.0099,0.0037 -0.01331,0.005 -0.01675,0.0064 -0.0095,0.0038 -0.01301,0.0053 -0.01651,0.0067 -0.0092,0.0039 -0.01275,0.0055 -0.01629,0.007 -0.0089,0.004 -0.0125,0.0056 -0.01609,0.0073 -0.0086,0.0041 -0.01228,0.0058 -0.01592,0.0076 -0.0084,0.0041 -0.01209,0.006 -0.01577,0.0078 -0.0082,0.0042 -0.01191,0.0061 -0.01564,0.0081 -0.008,0.0042 -0.01175,0.0063 -0.01553,0.0083 -0.0078,0.0043 -0.01161,0.0064 -0.01544,0.0086 -0.0076,0.0043 -0.01148,0.0066 -0.01536,0.0088 -0.0074,0.0044 -0.01137,0.0067 -0.01529,0.0091 -0.0073,0.0044 -0.01127,0.0069 -0.01524,0.0093 -0.0072,0.0045 -0.01119,0.007 -0.0152,0.0095 -0.0071,0.0045 -0.01112,0.0071 -0.01517,0.0098 -0.0069,0.0045 -0.01105,0.0073 -0.01515,0.01 -0.01691,0.01115 -0.03206,0.02149 -0.04678,0.03181 -0.03188,0.02228 -0.06246,0.04493 -0.09172,0.06745 -0.08495,0.06534 -0.164403,0.133493 -0.238917,0.200344 -0.114526,0.102912 -0.223624,0.208597 -0.328312,0.313077 -0.121908,0.121789 -0.240581,0.244995 -0.356426,0.367163 -0.142311,0.150131 -0.282733,0.301337 -0.420682,0.450473 -0.22147,0.239439 -0.434973,0.471907 -0.653735,0.705535 -0.171524,0.183193 -0.342021,0.36265 -0.514475,0.538429 -0.13303,0.13558 -0.265919,0.26766 -0.400412,0.39599 -0.127419,0.121529 -0.254823,0.23839 -0.384428,0.349878 -0.112703,0.09687 -0.22502,0.188019 -0.339493,0.272291 -0.02368,0.01749 -0.04729,0.03455 -0.07079,0.05112 -0.01741,0.0123 -0.03468,0.02428 -0.05184,0.03594 -0.0054,0.0037 -0.01164,0.008 -0.01779,0.01218 -0.571356,0.380203 -1.152399,0.735315 -1.738756,1.065795 -0.675026,0.380431 -1.358185,0.728848 -2.045264,1.046702 -0.712353,0.329528 -1.42901,0.626254 -2.146232,0.891723 -0.168574,0.06243 -0.335035,0.122423 -0.499696,0.180034 -0.178857,0.06223 -0.359101,0.119365 -0.537437,0.172851 -0.203778,0.06105 -0.406816,0.117761 -0.60633,0.17101 -0.257328,0.06863 -0.512533,0.132459 -0.762065,0.192302 -0.320644,0.07685 -0.637315,0.148366 -0.945472,0.215251 -0.384483,0.08341 -0.762387,0.161024 -1.128352,0.233388 -0.436862,0.08635 -0.863371,0.166516 -1.274482,0.240927 -0.360071,0.06516 -0.707128,0.125698 -1.040849,0.181989 -0.194696,0.03284 -0.378037,0.06311 -0.554642,0.0915 -0.05855,0.0094 -0.110427,0.01769 -0.161572,0.02566 a 0.31656431,0.31656431 90 0 0 0.09748,0.62558 z"
         id="path-1-3"
         inkscape:path-effect="#path-effect5;#path-effect6"
         inkscape:original-d="m 22.973512,-17.617128 c 0,0 4.810426,-0.745546 7.094227,-1.546874 2.273343,-0.797659 4.469793,-1.875651 6.475655,-3.210141 1.597159,-1.062582 4.081591,-4.628493 4.349769,-3.768222 0.268178,0.86027 -0.392464,4.160436 -0.450854,6.247553 -0.119831,4.283301 0.458729,12.5587239 0.206981,12.8532628"
         style="fill:#000000;fill-rule:nonzero;stroke:none;stroke-width:0.529167;stroke-linecap:butt;stroke-linejoin:miter;stroke-dasharray:none;stroke-opacity:1"
         transform="rotate(-9.4616483,228.26556,-253.1805)"
         sodipodi:nodetypes="caacac" />
    </g>
  </g>
</svg>
