<?xml version="1.0" encoding="UTF-8" standalone="no"?>
<!-- Created with Inkscape (http://www.inkscape.org/) -->

<svg
   width="43mm"
   height="27mm"
   viewBox="0 0 42.999998 26.999999"
   version="1.1"
   id="svg1"
   xmlns="http://www.w3.org/2000/svg"
   xmlns:svg="http://www.w3.org/2000/svg">

   <defs
      id="defs1" />
   <g
      id="layer1">
      <g
         id="g28"
         transform="matrix(1.0006769,0,0,1.0008393,-106.85109,-50.396348)">
         <path
            style="fill:none;stroke:#000000;stroke-width:0.79375;stroke-linecap:round;stroke-linejoin:round;stroke-dasharray:none;stroke-opacity:1;paint-order:fill markers stroke"
            id="path27"
            d="m 107.76504,76.252318 c 1.27146,0.512574 2.66193,0.513445 3.99901,0.290353 0.45114,-0.07527 0.89343,-0.196289 1.34014,-0.294433 2.0444,-0.578292 3.95746,-1.520262 5.59729,-2.880151 1.19753,-0.99309 1.42949,-1.350325 2.44627,-2.511113 1.18947,-1.637199 2.15586,-3.482798 2.28123,-5.540793 0.0608,-0.998529 -0.0491,-1.186108 -0.26521,-2.114087 -0.13735,-0.266594 -0.2464,-0.549785 -0.41204,-0.799785 -0.38664,-0.583533 -1.01927,-1.137915 -1.73542,-1.253315 -0.57713,-0.093 -0.74058,0.05428 -1.25857,0.261009 -0.18094,0.149359 -0.38245,0.27682 -0.54282,0.448085 -0.83569,0.892503 -1.12795,2.188001 -1.2009,3.369492 -0.0225,0.364342 -1e-4,0.730073 -1.5e-4,1.095108 0.0467,0.362958 0.0628,0.731205 0.14017,1.088877 0.30424,1.405678 1.05888,2.832362 2.11786,3.817691 0.26261,0.244345 0.5696,0.436155 0.8544,0.654233 0.32465,0.157739 0.63414,0.351522 0.97394,0.473215 1.08469,0.388456 2.35576,0.414414 3.44935,0.0361 1.32663,-0.45893 1.67479,-0.890563 2.80621,-1.766421 0.46978,-0.522328 0.97651,-1.013643 1.40932,-1.566982 1.2573,-1.607415 2.37869,-3.599979 3.02166,-5.542722 0.48637,-1.469564 0.448,-1.877491 0.59202,-3.358599 -0.0244,-0.453383 -0.008,-0.910765 -0.0732,-1.360141 -0.15725,-1.089081 -0.67456,-2.39853 -1.74374,-2.89954 -0.16801,-0.07873 -0.35851,-0.09581 -0.53776,-0.143719 -0.17512,0.02738 -0.36533,0.0059 -0.52534,0.08215 -0.44205,0.210558 -0.73697,0.676828 -0.95052,1.08567 -0.51046,0.977276 -0.70108,2.05223 -0.90939,3.121083 -0.18997,1.486136 -0.21085,3.032085 0.26883,4.471982 0.27687,0.831094 0.4519,1.020501 0.90418,1.74979 0.19847,0.230873 0.37127,0.486564 0.5954,0.692621 0.71196,0.654582 1.67501,1.041239 2.65458,0.892625 1.19242,-0.180901 1.61622,-0.633928 2.65348,-1.29798 0.59519,-0.547211 1.21192,-1.071882 1.78557,-1.641636 1.18605,-1.177986 2.65883,-2.857272 3.74261,-4.126741 1.50636,-1.764453 2.94293,-3.582381 4.36366,-5.415666 0.97779,-1.309759 1.97837,-2.607228 2.87051,-3.978224 0.14952,-0.259625 0.23486,-0.21108 -0.14459,-0.274048 -0.006,0.0031 -0.002,0.01209 0.004,0.009 v 0 c -0.16853,-0.179226 -0.0782,-0.164589 -0.20881,0.03784 -0.88629,1.361197 -1.87825,2.6509 -2.84645,3.953637 -1.41543,1.827263 -2.84722,3.638468 -4.34844,5.396794 -1.08692,1.273064 -2.52389,2.911242 -3.71116,4.09566 -0.55597,0.554633 -1.15275,1.066786 -1.72912,1.600181 -0.93791,0.612627 -1.34826,1.04616 -2.42285,1.233826 -0.85906,0.150027 -1.73025,-0.174212 -2.36703,-0.74255 -0.21207,-0.189278 -0.37499,-0.427297 -0.56249,-0.640945 -0.42414,-0.674185 -0.59963,-0.868117 -0.86203,-1.637443 -0.47221,-1.384485 -0.45222,-2.876984 -0.27926,-4.30956 0.19403,-1.030475 0.375,-2.052468 0.84842,-3.000748 0.13022,-0.260829 0.42086,-0.761643 0.71449,-0.933238 0.11141,-0.06511 0.25154,-0.05777 0.37731,-0.08666 0.14353,0.03253 0.29592,0.03826 0.4306,0.0976 0.97735,0.430604 1.44045,1.654093 1.5829,2.627577 0.0632,0.4317 0.0489,0.871223 0.0733,1.306833 -0.13695,1.430361 -0.1,1.836611 -0.57071,3.25632 -0.63157,1.904801 -1.73353,3.855651 -2.96505,5.432811 -0.41884,0.536384 -0.90884,1.013179 -1.36326,1.519769 -1.06392,0.830178 -1.40853,1.252101 -2.65249,1.69363 -1.01624,0.360698 -2.20084,0.35084 -3.21543,-0.0024 -0.31796,-0.110678 -0.60836,-0.288611 -0.91254,-0.432914 -0.26858,-0.200726 -0.55832,-0.375886 -0.80574,-0.602176 -1.01577,-0.929008 -1.74531,-2.287458 -2.04379,-3.623014 -0.0766,-0.3429 -0.0941,-0.696383 -0.14123,-1.044572 -0.002,-0.35089 -0.0262,-0.702315 -0.007,-1.052666 0.0615,-1.10477 0.32028,-2.308445 1.0773,-3.160929 0.13426,-0.151191 0.30393,-0.266774 0.45589,-0.400162 0.40446,-0.18098 0.56857,-0.32336 1.03091,-0.261593 0.64019,0.08553 1.21099,0.588658 1.55793,1.101598 0.15329,0.226637 0.25478,0.484285 0.38217,0.726427 0.20341,0.870325 0.30821,1.056322 0.25374,1.995746 -0.11572,1.995496 -1.0574,3.78224 -2.2084,5.369658 -0.9977,1.141439 -1.21967,1.485956 -2.39437,2.463422 -1.60205,1.333061 -3.47234,2.25679 -5.47094,2.827322 -0.43529,0.09626 -0.86633,0.214336 -1.30588,0.288779 -1.28425,0.217506 -2.60689,0.216302 -3.84507,-0.2198 -0.17881,-0.08355 -0.29697,0.169315 -0.11817,0.252868 z" />
         <path
            style="fill:none;stroke:#000000;stroke-width:0.79375;stroke-linecap:round;stroke-linejoin:round;stroke-dasharray:none;stroke-opacity:1;paint-order:fill markers stroke"
            id="path28"
            d="m 141.82273,54.174 c 1.09392,-0.386225 2.17233,-0.814615 3.24724,-1.250473 0.89873,-0.362498 1.78666,-0.751094 2.66938,-1.150819 0.12161,-0.06025 0.24945,-0.108566 0.36869,-0.173641 -0.058,0.03525 0.34122,-0.07105 0.38044,-0.08104 0.0882,-0.02186 0.17603,-0.04523 0.26394,-0.06828 -0.005,-0.0047 0.0269,-1.03e-4 0.0211,-0.0042 -0.0923,-0.06463 -0.16638,-0.195927 -0.2789,-0.190791 -0.0758,0.0035 -0.0631,0.138068 -0.0931,0.207767 -0.0479,0.11126 -0.0938,0.223382 -0.14071,0.335071 -0.46843,1.182219 -0.7712,2.420673 -1.03496,3.661934 -0.1185,0.610957 -0.22633,1.225007 -0.29369,1.843976 -0.0326,0.122394 0.0129,0.178252 0.039,0.294217 0.003,0.01497 -0.0193,-0.02384 -0.0289,-0.03576 0.002,0.08889 -0.004,0.177546 -0.0113,0.266065 -0.005,0.09735 -0.015,-0.16246 0.007,0.140959 0.0172,0.06116 0.0343,0.122354 0.0507,0.183727 0.003,0.0089 0.005,0.02191 0.007,0.03012 0.0777,0.292904 0.49196,0.182986 0.41423,-0.109919 v 0 c -0.004,-0.01066 -0.008,-0.02164 -0.0107,-0.03289 -0.0179,-0.06353 -0.0353,-0.127204 -0.0534,-0.190667 -0.011,0.156414 -0.003,0.04512 0.002,0.0105 0.008,-0.113398 0.0104,-0.227507 0.005,-0.341074 -0.1039,-0.383408 -0.005,0.117953 -0.0148,-0.172673 0.0615,-0.605504 0.16799,-1.20568 0.28324,-1.802924 0.258,-1.216609 0.5532,-2.431049 1.01259,-3.589609 0.0458,-0.109157 0.0908,-0.218631 0.13729,-0.327467 0.12693,-0.296971 0.12702,-0.236204 -0.12368,-0.555654 -0.0843,0.02479 -0.16932,0.0472 -0.25416,0.07009 -0.15696,0.04023 -0.31752,0.07152 -0.47183,0.118305 -0.1068,0.04991 -0.23074,0.109641 -0.34205,0.159301 -0.87669,0.400293 -1.75776,0.791498 -2.65146,1.152543 -1.06882,0.434822 -2.14136,0.860841 -3.22413,1.259883 -0.24284,0.08499 -0.12265,0.428418 0.12019,0.343429 z" />
      </g>
   </g>
</svg>
