<?xml version="1.0" encoding="UTF-8" standalone="no"?>
<!-- Created with Inkscape (http://www.inkscape.org/) -->

<svg
   width="51"
   height="51"
   viewBox="0 0 13.49375 13.49375"
   version="1.1"
   id="svg1"
   inkscape:export-filename="astro_logo.png"
   inkscape:export-xdpi="96"
   inkscape:export-ydpi="96"
   sodipodi:docname="astro_icon.svg"
   inkscape:version="1.3.2 (1:1.3.2+202311252150+091e20ef0f)"
   xmlns:inkscape="http://www.inkscape.org/namespaces/inkscape"
   xmlns:sodipodi="http://sodipodi.sourceforge.net/DTD/sodipodi-0.dtd"
   xmlns="http://www.w3.org/2000/svg"
   xmlns:svg="http://www.w3.org/2000/svg">
  <sodipodi:namedview
     id="namedview1"
     pagecolor="#ffffff"
     bordercolor="#999999"
     borderopacity="1"
     inkscape:showpageshadow="2"
     inkscape:pageopacity="0"
     inkscape:pagecheckerboard="0"
     inkscape:deskcolor="#d1d1d1"
     inkscape:document-units="mm"
     inkscape:zoom="11.549411"
     inkscape:cx="24.460122"
     inkscape:cy="27.144242"
     inkscape:window-width="1920"
     inkscape:window-height="1015"
     inkscape:window-x="0"
     inkscape:window-y="0"
     inkscape:window-maximized="1"
     inkscape:current-layer="layer1" />
  <defs
     id="defs1">
    <radialGradient
       id="radial-gradient"
       cx="251.42"
       cy="631.96997"
       r="251.39999"
       gradientTransform="translate(0,-380.56)"
       gradientUnits="userSpaceOnUse">
      <stop
         offset="0"
         stop-color="#fff"
         stop-opacity="0.1"
         id="stop1-1" />
      <stop
         offset="1"
         stop-color="#fff"
         stop-opacity="0"
         id="stop2-2" />
    </radialGradient>
    <linearGradient
       id="a"
       x1="882.99701"
       x2="638.95502"
       y1="27.113001"
       y2="866.90198"
       gradientTransform="scale(0.1)"
       gradientUnits="userSpaceOnUse">
      <stop
         offset="0"
         stop-color="#000014"
         id="stop1" />
      <stop
         offset="1"
         stop-color="#150426"
         id="stop2" />
    </linearGradient>
    <linearGradient
       id="b"
       x1="1001.68"
       x2="790.32599"
       y1="652.45001"
       y2="1094.91"
       gradientTransform="scale(0.1)"
       gradientUnits="userSpaceOnUse">
      <stop
         offset="0"
         stop-color="#ff1639"
         id="stop3" />
      <stop
         offset="1"
         stop-color="#ff1639"
         stop-opacity="0"
         id="stop4" />
    </linearGradient>
  </defs>
  <g
     inkscape:label="Capa 1"
     inkscape:groupmode="layer"
     id="layer1">
    <g
       id="g6"
       transform="matrix(0.11117601,0,0,0.11117601,-0.35693851,-0.58857373)">
      <path
         fill="url(#a)"
         d="m 81.504,9.465 c 0.973,1.207 1.469,2.836 2.457,6.09 l 21.656,71.136 A 90.079,90.079 0 0 0 79.727,77.926 L 65.629,30.28 a 1.833,1.833 0 0 0 -3.52,0.004 L 48.18,77.902 A 90.104,90.104 0 0 0 22.177,86.68 L 43.935,15.54 c 0.996,-3.25 1.492,-4.876 2.464,-6.083 A 8.023,8.023 0 0 1 49.642,7.059 C 51.075,6.484 52.778,6.484 56.177,6.484 H 71.72 c 3.402,0 5.105,0 6.543,0.579 a 7.988,7.988 0 0 1 3.242,2.402 z m 0,0"
         id="path4"
         style="fill:url(#a)" />
      <path
         fill="#ff5d01"
         d="m 84.094,90.074 c -3.57,3.055 -10.696,5.137 -18.903,5.137 -10.07,0 -18.515,-3.137 -20.754,-7.356 -0.8,2.418 -0.98,5.184 -0.98,6.954 0,0 -0.527,8.675 5.508,14.71 a 5.671,5.671 0 0 1 5.672,-5.671 c 5.37,0 5.367,4.683 5.363,8.488 v 0.336 c 0,5.773 3.527,10.719 8.543,12.805 a 11.62,11.62 0 0 1 -1.172,-5.098 c 0,-5.508 3.23,-7.555 6.988,-9.938 2.989,-1.894 6.309,-4 8.594,-8.222 a 15.513,15.513 0 0 0 1.875,-7.41 15.55,15.55 0 0 0 -0.734,-4.735 z m 0,0"
         id="path5" />
      <path
         fill="url(#b)"
         d="m 84.094,90.074 c -3.57,3.055 -10.696,5.137 -18.903,5.137 -10.07,0 -18.515,-3.137 -20.754,-7.356 -0.8,2.418 -0.98,5.184 -0.98,6.954 0,0 -0.527,8.675 5.508,14.71 a 5.671,5.671 0 0 1 5.672,-5.671 c 5.37,0 5.367,4.683 5.363,8.488 v 0.336 c 0,5.773 3.527,10.719 8.543,12.805 a 11.62,11.62 0 0 1 -1.172,-5.098 c 0,-5.508 3.23,-7.555 6.988,-9.938 2.989,-1.894 6.309,-4 8.594,-8.222 a 15.513,15.513 0 0 0 1.875,-7.41 15.55,15.55 0 0 0 -0.734,-4.735 z m 0,0"
         id="path6"
         style="fill:url(#b)" />
    </g>
  </g>
</svg>
