<?xml version="1.0" encoding="UTF-8" standalone="no"?>
<!-- Created with Inkscape (http://www.inkscape.org/) -->

<svg
   version="1.1"
   id="svg1"
   width="590"
   height="782"
   viewBox="0 0 590 782"
   sodipodi:docname="coffee.svg"
   inkscape:version="1.3.2 (1:1.3.2+202311252150+091e20ef0f)"
   xmlns:inkscape="http://www.inkscape.org/namespaces/inkscape"
   xmlns:sodipodi="http://sodipodi.sourceforge.net/DTD/sodipodi-0.dtd"
   xmlns="http://www.w3.org/2000/svg"
   xmlns:svg="http://www.w3.org/2000/svg">
  <defs
     id="defs1" />
  <sodipodi:namedview
     id="namedview1"
     pagecolor="#ffffff"
     bordercolor="#999999"
     borderopacity="1"
     inkscape:showpageshadow="2"
     inkscape:pageopacity="0"
     inkscape:pagecheckerboard="0"
     inkscape:deskcolor="#d1d1d1"
     showguides="true"
     inkscape:zoom="0.58447265"
     inkscape:cx="151.41855"
     inkscape:cy="532.95907"
     inkscape:window-width="2560"
     inkscape:window-height="1379"
     inkscape:window-x="0"
     inkscape:window-y="0"
     inkscape:window-maximized="1"
     inkscape:current-layer="g1" />
  <g
     inkscape:groupmode="layer"
     inkscape:label="Image"
     id="g1">
    <g
       id="g18"
       transform="translate(680.1328,-129.03877)">
      <path
         style="fill:#6c6d6f;fill-opacity:1;stroke:none;stroke-width:1px;stroke-linecap:butt;stroke-linejoin:miter;stroke-opacity:1"
         d="m -599.2505,245.17897 23.24024,-55.29094 c 0,0 103.02249,23.98411 153.16565,29.50811 141.72408,15.61299 240.83533,-2.07565 240.83533,-2.07565 l 15.54524,65.05413 c 0,0 -49.31102,22.05736 -99.62833,26.87466 -50.31731,4.8173 -147.47929,-0.55957 -204.78385,-10.87462 -57.30455,-10.31505 -128.37428,-53.19569 -128.37428,-53.19569 z"
         id="path2"
         sodipodi:nodetypes="ccscczzc" />
      <path
         style="fill:#6d6e70;fill-opacity:1;stroke:none;stroke-width:1px;stroke-linecap:butt;stroke-linejoin:miter;stroke-opacity:1"
         d="m -571.13412,168.54608 60.22126,-18.80039 216.96946,26.70954 112.80681,19.18935 -11.38153,20.74527 -106.7559,8.16845 -175.3332,-18.1521 -94.65401,-17.63349 z"
         id="path3" />
      <path
         style="fill:#6c6d6f;fill-opacity:1;stroke:none;stroke-width:1px;stroke-linecap:butt;stroke-linejoin:miter;stroke-opacity:1"
         d="m -648.06753,253.86098 -9.07641,56.79015 47.25497,30.46961 171.73147,32.80345 209.04561,16.33688 107.47624,-17.63346 11.09336,-52.64111 -6.05091,-21.39353 -84.85725,23.46807 -149.83284,-5.57529 -195.0708,-28.91372 -68.7214,-15.04031 z"
         id="path4" />
      <path
         style="fill:#545556;fill-opacity:1;stroke:none;stroke-width:1px;stroke-linecap:butt;stroke-linejoin:miter;stroke-opacity:1"
         d="m -650.08451,240.89518 c 0,0 24.56363,-17.82852 36.5938,-13.22512 12.03017,4.60341 8.45211,16.553 12.67816,24.8295 4.22606,8.2765 23.67261,8.718 15.99178,19.12455 -7.68082,10.40655 -42.78881,-7.39051 -42.78881,-7.39051 z"
         id="path5"
         sodipodi:nodetypes="czzzcc" />
      <path
         style="fill:#545556;fill-opacity:1;stroke:none;stroke-width:1px;stroke-linecap:butt;stroke-linejoin:miter;stroke-opacity:1"
         d="m -213.69643,310.13252 c 0,0 43.65325,-7.6498 50.13638,-17.50381 6.48314,-9.85401 6.62725,-32.02551 6.62725,-32.02551 l 43.65319,24.24603 c 0,0 6.77131,6.09391 -0.14405,10.50227 -6.91536,4.40837 -51.1449,18.41142 -51.1449,18.41142 0,0 -33.85641,5.57527 -41.34805,3.76008 -7.49165,-1.81519 -7.77982,-7.39048 -7.77982,-7.39048 z"
         id="path6" />
      <path
         style="fill:#fec627;fill-opacity:1;stroke:none;stroke-width:1px;stroke-linecap:butt;stroke-linejoin:miter;stroke-opacity:1"
         d="m -611.83346,447.47509 c -1.87292,-4.53806 -12.10188,-104.50427 -12.10188,-104.50427 0,0 140.85247,34.3161 218.4822,41.74981 77.62972,7.43371 252.91487,6.35325 252.91487,6.35325 l -13.3985,89.85292 c 0,0 -125.91719,36.56349 -229.21538,21.91217 -103.29819,-14.65131 -216.68131,-55.36388 -216.68131,-55.36388 z"
         id="path7"
         sodipodi:nodetypes="cczccsc" />
      <path
         style="fill:#fec627;fill-opacity:1;stroke:#000000;stroke-width:1px;stroke-linecap:butt;stroke-linejoin:miter;stroke-opacity:1"
         d="m -594.25692,686.17528 14.40701,136.52971 c 0,0 61.66197,53.80806 141.62082,60.29094 79.95886,6.48287 149.25655,1.42617 161.93471,-5.96429 12.67815,-7.39045 33.42429,-17.37416 36.30566,-30.7289 2.88137,-13.35475 23.77151,-127.58334 23.77151,-127.58334 0,0 -93.35738,23.59775 -154.87526,16.85553 -61.51788,-6.74222 -148.39211,-23.85709 -163.66353,-26.57989 -15.27143,-2.7228 -58.34836,-26.32054 -58.34836,-26.32054 z"
         id="path8" />
      <path
         style="fill:#bc781d;fill-opacity:1;stroke:#000000;stroke-width:1px;stroke-linecap:butt;stroke-linejoin:miter;stroke-opacity:1"
         d="m -626.24046,447.86404 19.88166,224.69715 c 0,0 73.47571,46.67685 191.46905,54.19701 117.99334,7.52015 213.07955,-16.98517 213.07955,-16.98517 l 46.39056,-222.36331 c 0,0 -126.20531,29.30269 -236.99517,19.57832 -110.78987,-9.72436 -233.82565,-59.124 -233.82565,-59.124 z"
         id="path9" />
      <path
         style="fill:#9f5f10;fill-opacity:1;stroke:none;stroke-width:1px;stroke-linecap:butt;stroke-linejoin:miter;stroke-opacity:0.312067"
         d="m -229.90382,503.8762 -37.60224,221.58542 65.69586,-23.2088 41.20406,-217.17701 z"
         id="path10"
         sodipodi:nodetypes="ccccc" />
      <path
         style="fill:#f2ab09;fill-opacity:1;stroke:none;stroke-width:1px;stroke-linecap:butt;stroke-linejoin:miter;stroke-opacity:1"
         d="m -621.48611,367.73545 c 0,0 99.1202,39.67536 208.90153,49.27003 109.78133,9.59466 184.40956,7.52015 184.40956,7.52015 l -12.67815,80.12855 74.34012,-16.46653 15.41552,-105.80085 c 0,0 -136.43432,17.50378 -259.47013,1.42622 -123.03582,-16.07757 -217.97787,-44.60229 -217.97787,-44.60229 z"
         id="path11" />
      <path
         style="fill:#f2ab09;fill-opacity:1;stroke:none;stroke-width:1px;stroke-linecap:butt;stroke-linejoin:miter;stroke-opacity:1"
         d="m -584.89244,721.8312 c 0,0 96.09472,36.95253 166.4009,46.5472 70.30618,9.59466 136.1462,4.40836 136.1462,4.40836 l -21.03426,108.39406 51.72118,-12.83615 20.60192,-53.67842 16.13586,-91.14948 c 0,0 -106.32351,26.32059 -205.2997,12.31751 -98.97619,-14.00308 -175.62135,-48.23277 -175.62135,-48.23277 z"
         id="path12" />
      <path
         style="fill:#535454;fill-opacity:1;stroke:none;stroke-width:1px;stroke-linecap:butt;stroke-linejoin:miter;stroke-opacity:1"
         d="m -239.12432,225.37109 12.82226,73.77534 61.08563,-13.61408 1.72891,-32.28483 -17.14432,-47.06581 z"
         id="path18" />
      <path
         style="fill:#535454;fill-opacity:1;stroke:none;stroke-width:1px;stroke-linecap:butt;stroke-linejoin:miter;stroke-opacity:1"
         d="m -199.50506,389.38835 c 0.43223,-3.50079 6.7713,-69.75596 6.7713,-69.75596 l 70.5943,-17.76313 0.28812,56.91983 z"
         id="path17" />
      <path
         style="fill:#000000"
         d="m -392.06553,896.58206 c -98.44949,-6.54596 -187.56214,-40.94785 -200.53611,-77.41687 l -1.57759,-4.43451 -6.48144,-64.95914 -6.48143,-64.95913 -2.87801,-2.54087 c -1.5829,-1.39747 -4.24084,-4.48659 -5.90652,-6.86471 l -3.02852,-4.32386 -1.09524,-5.17614 c -1.40155,-6.62377 -22.01514,-216.87544 -22.01514,-224.547 v -3.4977 l 2.09605,-4.32986 2.09605,-4.32986 4.65395,-2.66383 c 2.55967,-1.46511 4.78938,-2.75667 4.9549,-2.87015 0.30297,-0.2077 -6.29356,-71.48188 -7.3058,-78.93775 l -0.54306,-4 -7.47828,-3.84925 c -4.11305,-2.11708 -9.63167,-5.78533 -12.26359,-8.15165 l -4.78531,-4.30241 -2.71702,-4.99205 -2.71701,-4.99206 -0.55831,-4.35629 -0.5583,-4.35629 3.97286,-30.61341 3.97286,-30.61342 2.01759,-3.9548 c 4.89001,-9.5852 11.23844,-12.91516 34.59691,-18.1472 l 16.9345,-3.79314 8.24089,-24.70026 c 4.5325,-13.58514 9.15224,-26.17484 10.2661,-27.9771 l 2.0252,-3.27685 3.79941,-2.13171 3.79941,-2.13171 25,-6.49437 c 22.64333,-5.88217 30.98431,-7.69546 41.5,-9.02191 4.12677,-0.52055 53.6392,3.9161 99.5,8.91588 38.34296,4.18018 97.73116,11.75104 129,16.44505 14.3,2.14669 38.6,5.73658 54,7.97753 l 28,4.07447 7.36633,2.44188 c 9.27502,3.07459 16.22603,7.50345 20.15738,12.84335 l 3.06101,4.15772 1.38115,5 c 0.75963,2.75 3.69362,14.73706 6.51982,26.6379 l 5.1387,21.63791 4.6878,1.75856 c 9.4309,3.53786 29.4278,13.47159 36.254,18.0096 l 7.01,4.66027 2.9525,5.14788 2.9525,5.14788 0.01,9 c 0,4.95 -0.6855,21.15 -1.5327,36 l -1.5405,27 -2.3287,5.0888 -2.3287,5.0888 -4.2892,4.12145 c -4.6341,4.45283 -14.894,10.24521 -21.7191,12.26179 -2.3375,0.69065 -4.25,1.3573 -4.25,1.48144 0,0.12414 -3.3586,17.40606 -7.4636,38.40426 l -7.4635,38.17855 3.6125,3.17183 c 8.1357,7.14321 8.1396,7.01202 -1.7359,57.80039 -4.4278,22.77148 -9.5797,49.27769 -11.44861,58.90269 -1.86892,9.625 -6.5535,33.7 -10.41018,53.5 -3.85669,19.8 -8.44649,43.561 -10.19958,52.80221 l -3.18742,16.80222 -2.98113,4.50069 c -2.5706,3.88089 -7.34449,8.22604 -13.06856,11.89488 l -1.56018,1 -12.12861,61 -12.1286,61 -2.40232,5.33589 c -5.01669,11.14283 -14.17785,19.21901 -30.94011,27.27579 l -10.0058,4.80929 -12.73579,3.49049 c -27.42579,7.5165 -70.66351,11.20654 -104.7529,8.93992 z m 69.5,-22.84631 c 25.13035,-3.37149 45.47609,-9.80498 57.86729,-18.29812 l 6.8673,-4.70695 2.91814,-4.05221 2.91813,-4.05221 10.64303,-53.686 c 5.85367,-29.5273 10.44375,-53.88528 10.20018,-54.12884 -0.24356,-0.24356 -3.58637,0.43675 -7.42846,1.51182 -20.12072,5.63003 -50.19477,9.45332 -82.48561,10.48635 l -20.5,0.65582 -22.5,-1.15959 c -85.43567,-4.40312 -167.73838,-21.36469 -212.35248,-43.76321 -3.76887,-1.89216 -7.08566,-3.20712 -7.37065,-2.92213 -0.46845,0.46845 1.20668,18.70082 8.21212,89.38176 l 2.30652,23.27156 2.46296,3.22911 c 20.19052,26.47113 92.86927,52.84255 161.74153,58.68778 6.875,0.58348 14.075,1.2342 16,1.44604 1.925,0.21184 15.65,0.2632 30.5,0.11413 l 27,-0.27103 z m 34,-149.96517 c 39.10819,-4.25342 73.36876,-14.9521 78.48303,-24.50819 0.55544,-1.03785 3.46266,-14.63206 6.46048,-30.20935 2.99783,-15.5773 11.54942,-59.87392 19.00354,-98.43693 7.45412,-38.56302 13.55295,-70.38453 13.55295,-70.71447 0,-0.32994 -2.04525,0.27681 -4.545,1.34833 -18.8643,8.08618 -47.04422,13.0739 -85.4076,15.11674 l -21.4526,1.14235 -29.5474,-1.17227 c -121.62666,-4.82546 -277.57337,-35.41053 -305.30353,-59.87769 -2.87408,-2.53589 -2.86864,-2.39367 1.73312,45.33126 2.43632,25.26718 6.69871,69.79032 9.47198,98.94032 2.77327,29.15 5.29969,54.93149 5.61427,57.2922 l 0.57196,4.29219 3.10794,3.53976 c 21.3853,24.3565 113.63153,50.21596 206.25686,57.82015 28.02478,2.30073 29.55304,2.35088 60,1.96923 l 28,-0.35099 z m 44,-229.54024 c 23.93707,-2.1732 42.99247,-5.92618 56.71585,-11.17026 l 7.71585,-2.94843 0.57029,-3.19049 c 0.31366,-1.75476 3.90356,-21.17844 7.97757,-43.16372 4.07401,-21.98528 7.32023,-40.04016 7.21383,-40.12195 -0.1063,-0.0818 -4.46839,0.43697 -9.69339,1.1528 -17.45748,2.39171 -35.26387,3.52871 -64.5,4.11853 l -29,0.58506 -26,-1.15983 C -399.28167,393.61619 -539.5238,372.6404 -608.15851,351.27887 l -6.14676,-1.91308 0.58165,4.68244 c 0.31991,2.57535 2.19376,22.00745 4.16411,43.18245 1.97035,21.175 3.7785,39.44229 4.01811,40.59398 l 0.43566,2.09398 10.7701,5.04756 c 43.51594,20.39434 141.00342,39.63989 241.77011,47.7292 26.28768,2.11031 26.93158,2.1339 64,2.34536 l 33,0.18825 z m 31.5,-117.03054 c 30.33063,-1.8779 53.44809,-5.45012 69.40979,-10.72552 l 7.9289,-2.62053 4.0807,-3.11101 4.0806,-3.11101 0.6639,-5.38999 c 0.3651,-2.9645 0.9848,-12.04741 1.3772,-20.18424 l 0.7134,-14.79424 -7.1685,2.43818 c -51.33189,17.4591 -173.9143,14.60475 -326.08599,-7.59295 -79.13001,-11.54291 -156.51981,-28.91944 -178.3115,-40.03673 -5.11605,-2.61001 -4.77237,-3.44238 -7.34887,17.79868 l -2.25185,18.56457 1.50544,2.29759 c 16.05199,24.49843 202.37981,59.38839 356.90678,66.83093 15.83927,0.76287 59.76783,0.5484 74.5,-0.36373 z m 42,-70.55932 c 19.26339,-2.43855 34.21229,-6.86444 42.06019,-12.45265 l 2.9633,-2.11008 -0.5898,-0.95432 c -0.6469,-1.04681 -20.572,-11.2033 -24.1837,-12.32731 l -2.25,-0.70022 v 2.22953 c 0,1.22625 -1.1189,4.13875 -2.4864,6.47223 l -2.4864,4.24269 -4.7636,3.4696 c -8.14042,5.92911 -18.07007,9.86914 -34.26359,13.59558 l -4.5,1.03554 9.5,-0.5224 c 5.225,-0.28733 14.675,-1.17751 21,-1.97819 z m -66.5,-15.47337 c 28.22102,-2.35 39.44833,-4.00502 50.19131,-7.39873 l 7.8794,-2.4891 2.21465,-2.06326 c 2.96259,-2.76007 3.00012,-2.42335 -3.29574,-29.57513 -6.52055,-28.1208 -4.42789,-24.99892 -14.75185,-22.00715 -9.80524,2.84145 -33.14043,6.85421 -52.73777,9.06889 l -13.5,1.52562 -21,-0.014 c -65.70924,-0.0438 -200.92749,-17.02545 -265.8316,-33.38508 l -13.8316,-3.48637 -6.56773,-3.07341 c -3.61225,-1.69037 -6.66397,-2.95311 -6.78159,-2.80607 -0.11763,0.14704 -3.69656,10.75594 -7.95318,23.57533 l -7.73932,23.30799 1.71829,1.89869 c 4.94681,5.46615 56.64699,20.14949 96.8782,27.51431 53.36137,9.76845 116.1617,17.38518 168.60853,20.44965 10.175,0.59452 20.75,1.24209 23.5,1.43903 9.46838,0.67809 39.05197,-0.48705 63,-2.48123 z m -368.31219,-32.76305 -4.14498,-3.82662 -1.52141,-3.64126 c -0.83678,-2.00269 -1.52142,-4.55572 -1.52142,-5.67338 v -2.03212 h -1.43462 c -1.28418,0 -12.30778,2.11933 -18.40363,3.53816 l -2.33825,0.54424 1.18429,1.42698 c 2.52062,3.03717 14.56404,8.64717 25.49221,11.87464 7.16436,2.11589 7.27537,2.02458 2.68781,-2.21064 z m 347.31219,-42.66479 c 29.39421,-3.08639 46.67368,-6.19355 56.65641,-10.18785 l 3.97418,-1.59015 -0.8397,-0.8397 c -1.41705,-1.41705 -98.22209,-15.76407 -150.79089,-22.34802 -50.67348,-6.34656 -146.94758,-16.5503 -155.94014,-16.52752 l -6.05986,0.0154 -8,1.98299 c -4.4,1.09065 -14.6678,4.29987 -22.81733,7.13161 l -14.81733,5.1486 1.31733,1.27935 c 9.07884,8.81705 162.33327,31.41322 246.31733,36.31755 22.24343,1.29893 35.96867,1.19607 51,-0.38222 z"
         id="path1" />
      <g
         id="g16"
         style="fill:#9d601e;fill-opacity:1;stroke:#9f5f10;stroke-opacity:1"
         transform="translate(-907.20893,16.07759)">
        <path
           style="fill:#9d601e;fill-opacity:1;stroke:#9f5f10;stroke-width:20;stroke-linecap:round;stroke-linejoin:miter;stroke-dasharray:none;stroke-opacity:1"
           d="m 359.91886,509.19225 7.20342,136.52976"
           id="path13" />
        <path
           style="fill:#9d601e;fill-opacity:1;stroke:#9f5f10;stroke-width:20;stroke-linecap:round;stroke-linejoin:miter;stroke-dasharray:none;stroke-opacity:1"
           d="m 434.25898,518.65727 0.57623,145.34649"
           id="path14" />
        <path
           style="fill:#9d601e;fill-opacity:1;stroke:#9f5f10;stroke-width:20;stroke-linecap:round;stroke-linejoin:miter;stroke-dasharray:none;stroke-opacity:1"
           d="M 517.96366,531.88236 504.42105,670.48663"
           id="path15" />
        <path
           style="fill:#9d601e;fill-opacity:1;stroke:#9f5f10;stroke-width:20;stroke-linecap:round;stroke-linejoin:miter;stroke-dasharray:none;stroke-opacity:1"
           d="M 597.7784,536.67972 579.62563,674.11706"
           id="path16" />
      </g>
    </g>
  </g>
</svg>
