<?xml version="1.0" encoding="UTF-8" standalone="no"?>
<!-- Created with Inkscape (http://www.inkscape.org/) -->

<svg
   width="32"
   height="32"
   viewBox="0 0 8.4666664 8.4666666"
   version="1.1"
   id="svg1"
   inkscape:version="1.3.2 (1:1.3.2+202311252150+091e20ef0f)"
   sodipodi:docname="github_icon.svg"
   xmlns:inkscape="http://www.inkscape.org/namespaces/inkscape"
   xmlns:sodipodi="http://sodipodi.sourceforge.net/DTD/sodipodi-0.dtd"
   xmlns="http://www.w3.org/2000/svg"
   xmlns:svg="http://www.w3.org/2000/svg">
  <sodipodi:namedview
     id="namedview1"
     pagecolor="#ffffff"
     bordercolor="#999999"
     borderopacity="1"
     inkscape:showpageshadow="2"
     inkscape:pageopacity="0"
     inkscape:pagecheckerboard="0"
     inkscape:deskcolor="#d1d1d1"
     inkscape:document-units="mm"
     inkscape:zoom="26.03125"
     inkscape:cx="18.535414"
     inkscape:cy="16.230492"
     inkscape:window-width="1920"
     inkscape:window-height="1015"
     inkscape:window-x="0"
     inkscape:window-y="0"
     inkscape:window-maximized="1"
     inkscape:current-layer="layer1" />
  <defs
     id="defs1" />
  <g
     inkscape:label="Capa 1"
     inkscape:groupmode="layer"
     id="layer1">
    <path
       fill-rule="evenodd"
       clip-rule="evenodd"
       d="m 4.2370684,0.13229171 c -2.26965,0 -4.10444001,1.87963599 -4.10444001,4.20500399 0,1.858787 1.17561001,3.432214 2.80650001,3.9891 0.20391,0.04186 0.27859,-0.09048 0.27859,-0.201803 0,-0.09749 -0.007,-0.431636 -0.007,-0.779793 -1.14175,0.250674 -1.37951,-0.501264 -1.37951,-0.501264 -0.18349,-0.48734 -0.45536,-0.612593 -0.45536,-0.612593 -0.3737,-0.257597 0.0272,-0.257597 0.0272,-0.257597 0.41453,0.02787 0.63204,0.431636 0.63204,0.431636 0.36689,0.640443 0.9581,0.459485 1.19594,0.348072 0.0339,-0.271519 0.14274,-0.459485 0.25826,-0.56389 -0.91063,-0.09749 -1.86873,-0.459488 -1.86873,-2.074694 0,-0.459481 0.16299,-0.835409 0.42125,-1.12778 -0.0407,-0.104405 -0.18349,-0.536122 0.0408,-1.113938 0,0 0.34656,-0.111413 1.12798,0.431632 a 3.946154,4.013023 0 0 1 1.02613,-0.139265 c 0.34656,0 0.69983,0.04879 1.02606,0.139265 0.7815,-0.543045 1.12807,-0.431632 1.12807,-0.431632 0.22431,0.577816 0.0815,1.009533 0.0407,1.113938 0.26506,0.292371 0.42133,0.668299 0.42133,1.12778 0,1.615206 -0.9581,1.970204 -1.87554,2.074694 0.14955,0.132258 0.27859,0.382847 0.27859,0.779708 0,0.56389 -0.007,1.016456 -0.007,1.155632 0,0.111413 0.0748,0.243755 0.27859,0.201977 1.63089,-0.557056 2.8065,-2.130398 2.8065,-3.989185 0.007,-2.325368 -1.83475,-4.20500399 -4.09759,-4.20500399 z"
       fill="#24292f"
       id="path1"
       style="stroke-width:0.0847232" />
  </g>
</svg>
