<?xml version="1.0" encoding="UTF-8" standalone="no"?>
<!-- Created with Inkscape (http://www.inkscape.org/) -->

<svg
   width="32"
   height="32"
   viewBox="0 0 8.4666664 8.4666666"
   version="1.1"
   id="svg1"
   inkscape:version="1.3.2 (1:1.3.2+202311252150+091e20ef0f)"
   sodipodi:docname="linkedIn_icon.svg"
   xmlns:inkscape="http://www.inkscape.org/namespaces/inkscape"
   xmlns:sodipodi="http://sodipodi.sourceforge.net/DTD/sodipodi-0.dtd"
   xmlns="http://www.w3.org/2000/svg"
   xmlns:svg="http://www.w3.org/2000/svg">
  <sodipodi:namedview
     id="namedview1"
     pagecolor="#ffffff"
     bordercolor="#999999"
     borderopacity="1"
     inkscape:showpageshadow="2"
     inkscape:pageopacity="0"
     inkscape:pagecheckerboard="0"
     inkscape:deskcolor="#d1d1d1"
     inkscape:document-units="mm"
     inkscape:zoom="26.03125"
     inkscape:cx="18.535414"
     inkscape:cy="16.230492"
     inkscape:window-width="1920"
     inkscape:window-height="1015"
     inkscape:window-x="0"
     inkscape:window-y="0"
     inkscape:window-maximized="1"
     inkscape:current-layer="layer1" />
  <defs
     id="defs1" />
  <g
     inkscape:label="Capa 1"
     inkscape:groupmode="layer"
     id="layer1">
    <path
       d="m 1.6613833,0.13229182 c -0.84458998,0 -1.52908998,0.684714 -1.52908998,1.52931308 v 5.14368 c 0,0.8446 0.6845,1.52909 1.52908998,1.52909 h 5.14368 c 0.84465,0 1.52931,-0.68449 1.52931,-1.52909 v -5.14368 c 0,-0.84459908 -0.68466,-1.52931308 -1.52931,-1.52931308 z m 0.96119,2.03021308 c 0.27612,0 0.46028,0.20724 0.46028,0.46028 0,0.25317 -0.1612,0.46029 -0.46028,0.46029 -0.27611,0 -0.46006,-0.20714 -0.46006,-0.43727 0,-0.25316 0.18395,-0.4833 0.46006,-0.4833 z m -0.46006,1.15048 h 0.92034 v 2.99117 h -0.92034 z m 3.12903,0.046 c 0.57519,0 1.0124,0.39116 1.0124,1.24254 v 1.7026 h -0.92035 v -1.58752 c 0,-0.36823 -0.13796,-0.64418 -0.46006,-0.64418 -0.2531,0 -0.3683,0.20699 -0.43727,0.36801 -0.023,0.069 -0.023,0.13811 -0.023,0.23014 v 1.63355 h -0.92034 v -1.97877 c 0,-0.34506 -0.023,-0.64416 -0.023,-0.89732 h 0.82829 l 0.046,0.39124 h 0.023 c 0.115,-0.18406 0.39115,-0.46029 0.87432,-0.46029 z"
       style="stroke-width:0.484984;stroke-linecap:round;stroke-linejoin:round;stroke-miterlimit:10"
       id="path279" />
  </g>
</svg>
