<?xml version="1.0" encoding="UTF-8" standalone="no"?>
<svg
   viewBox="0 0 175.216 175.552"
   version="1.1"
   id="svg6"
   sodipodi:docname="WhatsAppBlack.svg"
   inkscape:version="1.3.2 (1:1.3.2+202311252150+091e20ef0f)"
   xmlns:inkscape="http://www.inkscape.org/namespaces/inkscape"
   xmlns:sodipodi="http://sodipodi.sourceforge.net/DTD/sodipodi-0.dtd"
   xmlns="http://www.w3.org/2000/svg"
   xmlns:svg="http://www.w3.org/2000/svg">
  <sodipodi:namedview
     id="namedview6"
     pagecolor="#ffffff"
     bordercolor="#999999"
     borderopacity="1"
     inkscape:showpageshadow="2"
     inkscape:pageopacity="0"
     inkscape:pagecheckerboard="0"
     inkscape:deskcolor="#d1d1d1"
     inkscape:zoom="4.7450328"
     inkscape:cx="114.54083"
     inkscape:cy="87.776001"
     inkscape:window-width="1920"
     inkscape:window-height="1015"
     inkscape:window-x="0"
     inkscape:window-y="0"
     inkscape:window-maximized="1"
     inkscape:current-layer="svg6" />
  <defs
     id="defs2">
    <linearGradient
       id="b"
       x1="85.915"
       x2="86.535"
       y1="32.567"
       y2="137.092"
       gradientUnits="userSpaceOnUse">
      <stop
         offset="0"
         stop-color="#57d163"
         id="stop1" />
      <stop
         offset="1"
         stop-color="#23b33a"
         id="stop2" />
    </linearGradient>
    <filter
       id="a"
       width="1.1146948"
       height="1.1141825"
       x="-0.057347414"
       y="-0.05709127"
       color-interpolation-filters="sRGB">
      <feGaussianBlur
         stdDeviation="3.531"
         id="feGaussianBlur2" />
    </filter>
  </defs>
  <path
     fill="url(#linearGradient1780)"
     d="m 87.631883,26.618587 c -33.733,0 -61.166,27.423 -61.178,61.13 a 60.98,60.98 0 0 0 9.349,32.534993 l 1.455,2.312 -6.179,22.559 23.146,-6.069 2.235,1.324 c 9.387,5.571 20.15,8.518 31.126,8.524 h 0.023 c 33.706997,0 61.139997,-27.426 61.152997,-61.134993 a 60.75,60.75 0 0 0 -17.895,-43.251 60.75,60.75 0 0 0 -43.234997,-17.929 z"
     id="path4" />
  <g
     id="g8"
     transform="matrix(1.0976561,0,0,1.0976561,-8.5554572,-8.5718613)">
    <path
       fill="#ffffff"
       d="m 13.82703,161.89232 10.439,-38.114 a 73.42,73.42 0 0 1 -9.821,-36.772005 c 0.017,-40.556 33.021,-73.55 73.577998,-73.55 19.681002,0.01 38.154002,7.669 52.047002,21.572 13.893,13.903 21.537,32.383 21.53,52.037 -0.018,40.553005 -33.027,73.553005 -73.578002,73.553005 h -0.032 c -12.312998,-0.005 -24.411998,-3.094 -35.158998,-8.954 z"
       id="path3"
       style="fill:none;stroke:#000000;stroke-opacity:1" />
    <path
       d="m 87.633285,26.618864 c -33.73297,0 -61.167687,27.423893 -61.179687,61.130859 a 60.98,60.98 0 0 0 9.349609,32.533207 l 1.455078,2.31445 -6.179687,22.55664 23.146487,-6.06836 2.23437,1.32422 c 9.38699,5.57099 20.15097,8.51743 31.12695,8.52343 h 0.0234 c 33.706975,0 61.139355,-27.42578 61.152355,-61.134759 A 60.75,60.75 0 0 0 130.86767,44.546598 60.75,60.75 0 0 0 87.633285,26.618864 Z m -26.04688,26.507812 3.52344,0.04297 c 1.309,0.053 2.75872,0.114784 4.13672,3.175781 1.634,3.635996 5.20602,12.729439 5.66602,13.648438 0.46,0.918999 0.76434,1.993751 0.15234,3.21875 -0.612,1.224998 -0.91494,1.993407 -1.83594,3.066406 -0.921,1.072999 -1.93281,2.394751 -2.75781,3.21875 -0.922,0.915999 -1.88259,1.912955 -0.80859,3.751953 1.074,1.838998 4.76352,7.85552 10.22851,12.728516 7.024,6.263 12.94321,8.20601 14.78321,9.12501 1.83999,0.91899 2.91137,0.7641 3.98437,-0.46289 1.073003,-1.227 4.591365,-5.365091 5.818365,-7.205089 1.227,-1.839998 2.45172,-1.535875 4.13672,-0.921875 1.685,0.613999 10.7225,5.062424 12.5625,5.982424 1.84,0.92 3.06639,1.37554 3.52539,2.14454 0.459,0.76899 0.45873,4.44723 -1.07226,8.74023 -1.531,4.293 -9.03621,8.43423 -12.40821,8.74023 -3.37199,0.306 -6.53352,1.52439 -22.062505,-4.59961 -18.68698,-7.36899 -30.4863,-26.522004 -31.4043,-27.750003 -0.918,-1.227998 -7.50586,-9.968681 -7.50586,-19.013672 0,-9.04499 4.75155,-13.492033 6.43555,-15.332031 1.684,-1.839998 3.67635,-2.298828 4.90234,-2.298828 z"
       id="path7" />
  </g>
</svg>
